<?xml version="1.0" encoding="UTF-8"?>
<svg version="1.1" xmlns="http://www.w3.org/2000/svg" width="512" height="512">
<path d="M0 0 C0.78095032 -0.00705963 1.56190063 -0.01411926 2.36651611 -0.02139282 C34.86063016 -0.24853129 34.86063016 -0.24853129 48.57421875 3.203125 C49.38987305 3.40180176 50.20552734 3.60047852 51.04589844 3.80517578 C99.94030905 15.99681533 140.29284618 45.12013966 166.57421875 88.203125 C177.54410536 106.60583627 184.32642189 126.26689944 188.57421875 147.203125 C188.80882812 148.30140625 189.0434375 149.3996875 189.28515625 150.53125 C195.04743579 181.76447536 190.52585661 214.13655254 180.16015625 243.82421875 C179.89267578 244.60007324 179.62519531 245.37592773 179.34960938 246.17529297 C178.57421875 248.203125 178.57421875 248.203125 177.06640625 250.80078125 C176.34223399 254.33543156 177.87722692 256.04342329 179.80249023 258.97509766 C180.30466064 259.71034668 180.80683105 260.4455957 181.32421875 261.203125 C192.60692658 278.71382971 204.32366264 299.59638414 201.57421875 321.203125 C199.25402927 330.85610582 195.2344231 336.85153231 186.83203125 342.125 C168.55286388 350.85346054 145.94532256 343.8875135 128.01171875 337.640625 C126.38381551 337.0604629 124.75743768 336.47599802 123.1328125 335.88671875 C122.36453125 335.6136792 121.59625 335.34063965 120.8046875 335.05932617 C118.57421875 334.203125 118.57421875 334.203125 116.484375 333.16918945 C112.69414473 331.34950562 112.69414473 331.34950562 108.6472168 331.77758789 C106.55356211 332.89857703 104.64623679 334.15603922 102.69921875 335.515625 C101.2053687 336.47245503 99.70649888 337.42148581 98.203125 338.36328125 C97.43887207 338.8442627 96.67461914 339.32524414 95.88720703 339.82080078 C74.15756363 352.80721 46.37368183 360.25409773 21.1484375 360.40625 C20.36748718 360.41330963 19.58653687 360.42036926 18.78192139 360.42764282 C-13.71219266 360.65478129 -13.71219266 360.65478129 -27.42578125 357.203125 C-28.6492627 356.90510986 -28.6492627 356.90510986 -29.89746094 356.60107422 C-78.79187155 344.40943467 -119.14440868 315.28611034 -145.42578125 272.203125 C-169.26339454 232.21395006 -176.35491164 183.2917432 -165.703125 138 C-163.85568023 130.75595199 -161.46146717 123.67633996 -159.01171875 116.6171875 C-158.74439941 115.834646 -158.47708008 115.05210449 -158.20166016 114.24584961 C-157.42578125 112.203125 -157.42578125 112.203125 -155.91015625 109.62109375 C-155.18874798 106.01987021 -156.81528362 104.17433274 -158.75537109 101.17724609 C-159.26535645 100.42266113 -159.7753418 99.66807617 -160.30078125 98.890625 C-161.33674639 97.27514943 -162.36793 95.6565985 -163.39453125 94.03515625 C-163.91015625 93.22385254 -164.42578125 92.41254883 -164.95703125 91.57666016 C-174.68717093 75.85252154 -184.08633087 54.8997209 -179.70703125 36.12109375 C-176.8975415 27.83989615 -173.1037359 22.93824298 -165.68359375 18.28125 C-147.40442638 9.55278946 -124.79688506 16.5187365 -106.86328125 22.765625 C-105.23537801 23.3457871 -103.60900018 23.93025198 -101.984375 24.51953125 C-101.21730225 24.79321533 -100.45022949 25.06689941 -99.65991211 25.34887695 C-97.42578125 26.203125 -97.42578125 26.203125 -95.30297852 27.21948242 C-93.02651232 28.3360048 -93.02651232 28.3360048 -89.42578125 29.203125 C-86.61356167 28.0712621 -84.87214575 27.1210511 -82.48828125 25.390625 C-81.17347792 24.52611946 -79.85429803 23.66824046 -78.53125 22.81640625 C-77.85497559 22.37635254 -77.17870117 21.93629883 -76.48193359 21.48291016 C-54.47433733 7.78499759 -25.82040098 0.1557421 0 0 Z M-158.42578125 40.203125 C-161.04640232 45.44436713 -159.08762706 51.65175908 -157.5390625 56.97265625 C-154.16196388 66.77216699 -149.77704508 76.32545228 -144.42578125 85.203125 C-143.76578125 85.203125 -143.10578125 85.203125 -142.42578125 85.203125 C-141.14937382 83.45930077 -139.95563243 81.65472228 -138.80078125 79.828125 C-132.71497758 70.49728778 -125.71626306 62.28427192 -118.13671875 54.16015625 C-115.13496683 50.92518271 -112.2771322 47.57059402 -109.42578125 44.203125 C-112.40283895 43.23815707 -115.38278566 42.28241622 -118.36328125 41.328125 C-119.19408203 41.05871094 -120.02488281 40.78929687 -120.88085938 40.51171875 C-129.1338863 37.87845724 -136.97577489 35.84498548 -145.67578125 35.828125 C-146.35640625 35.80363281 -147.03703125 35.77914062 -147.73828125 35.75390625 C-152.59546964 35.72566678 -155.02662365 36.76563103 -158.42578125 40.203125 Z M163.57421875 275.203125 C162.29781132 276.94694923 161.10406993 278.75152772 159.94921875 280.578125 C153.86341508 289.90896222 146.86470056 298.12197808 139.28515625 306.24609375 C136.28340433 309.48106729 133.4255697 312.83565598 130.57421875 316.203125 C133.55127645 317.16809293 136.53122316 318.12383378 139.51171875 319.078125 C140.34251953 319.34753906 141.17332031 319.61695313 142.02929688 319.89453125 C150.14320667 322.48340519 157.74696215 324.48893229 166.32421875 324.515625 C167.5771875 324.53238281 168.83015625 324.54914063 170.12109375 324.56640625 C173.81832394 324.17744425 175.64898401 323.44966319 178.57421875 321.203125 C181.50138527 316.81237522 180.92760551 313.09792903 179.98046875 308.01953125 C177.48514924 299.06004351 173.85886616 291.1627624 169.50732422 282.97265625 C168.15300778 280.40434502 166.86300185 277.80478061 165.57421875 275.203125 C164.91421875 275.203125 164.25421875 275.203125 163.57421875 275.203125 Z " fill="#9AC8FE" transform="translate(250.42578125,80.796875)"/>
<path d="M0 0 C0.78095032 -0.00705963 1.56190063 -0.01411926 2.36651611 -0.02139282 C34.86063016 -0.24853129 34.86063016 -0.24853129 48.57421875 3.203125 C49.38987305 3.40180176 50.20552734 3.60047852 51.04589844 3.80517578 C99.94030905 15.99681533 140.29284618 45.12013966 166.57421875 88.203125 C177.54410536 106.60583627 184.32642189 126.26689944 188.57421875 147.203125 C188.80882812 148.30140625 189.0434375 149.3996875 189.28515625 150.53125 C195.04743579 181.76447536 190.52585661 214.13655254 180.16015625 243.82421875 C179.89267578 244.60007324 179.62519531 245.37592773 179.34960938 246.17529297 C178.57421875 248.203125 178.57421875 248.203125 177.06640625 250.80078125 C176.34223399 254.33543156 177.87722692 256.04342329 179.80249023 258.97509766 C180.30466064 259.71034668 180.80683105 260.4455957 181.32421875 261.203125 C192.60692658 278.71382971 204.32366264 299.59638414 201.57421875 321.203125 C199.25402927 330.85610582 195.2344231 336.85153231 186.83203125 342.125 C168.55286388 350.85346054 145.94532256 343.8875135 128.01171875 337.640625 C126.38381551 337.0604629 124.75743768 336.47599802 123.1328125 335.88671875 C122.36453125 335.6136792 121.59625 335.34063965 120.8046875 335.05932617 C118.57421875 334.203125 118.57421875 334.203125 116.484375 333.16918945 C112.69414473 331.34950562 112.69414473 331.34950562 108.6472168 331.77758789 C106.55356211 332.89857703 104.64623679 334.15603922 102.69921875 335.515625 C101.2053687 336.47245503 99.70649888 337.42148581 98.203125 338.36328125 C97.43887207 338.8442627 96.67461914 339.32524414 95.88720703 339.82080078 C74.15756363 352.80721 46.37368183 360.25409773 21.1484375 360.40625 C20.36748718 360.41330963 19.58653687 360.42036926 18.78192139 360.42764282 C-13.71219266 360.65478129 -13.71219266 360.65478129 -27.42578125 357.203125 C-28.6492627 356.90510986 -28.6492627 356.90510986 -29.89746094 356.60107422 C-78.79187155 344.40943467 -119.14440868 315.28611034 -145.42578125 272.203125 C-169.26339454 232.21395006 -176.35491164 183.2917432 -165.703125 138 C-163.85568023 130.75595199 -161.46146717 123.67633996 -159.01171875 116.6171875 C-158.74439941 115.834646 -158.47708008 115.05210449 -158.20166016 114.24584961 C-157.42578125 112.203125 -157.42578125 112.203125 -155.91015625 109.62109375 C-155.18874798 106.01987021 -156.81528362 104.17433274 -158.75537109 101.17724609 C-159.26535645 100.42266113 -159.7753418 99.66807617 -160.30078125 98.890625 C-161.33674639 97.27514943 -162.36793 95.6565985 -163.39453125 94.03515625 C-163.91015625 93.22385254 -164.42578125 92.41254883 -164.95703125 91.57666016 C-174.68717093 75.85252154 -184.08633087 54.8997209 -179.70703125 36.12109375 C-176.8975415 27.83989615 -173.1037359 22.93824298 -165.68359375 18.28125 C-147.40442638 9.55278946 -124.79688506 16.5187365 -106.86328125 22.765625 C-105.23537801 23.3457871 -103.60900018 23.93025198 -101.984375 24.51953125 C-101.21730225 24.79321533 -100.45022949 25.06689941 -99.65991211 25.34887695 C-97.42578125 26.203125 -97.42578125 26.203125 -95.30297852 27.21948242 C-93.02651232 28.3360048 -93.02651232 28.3360048 -89.42578125 29.203125 C-86.61356167 28.0712621 -84.87214575 27.1210511 -82.48828125 25.390625 C-81.17347792 24.52611946 -79.85429803 23.66824046 -78.53125 22.81640625 C-77.85497559 22.37635254 -77.17870117 21.93629883 -76.48193359 21.48291016 C-54.47433733 7.78499759 -25.82040098 0.1557421 0 0 Z M-106.62890625 70.15625 C-114.87417209 79.54868326 -121.84621975 89.60352373 -128.42578125 100.203125 C-129.08578125 101.193125 -129.74578125 102.183125 -130.42578125 103.203125 C-130.27670151 108.03993421 -127.49851013 111.12252204 -124.55078125 114.703125 C-124.0604541 115.31188477 -123.57012695 115.92064453 -123.06494141 116.54785156 C-121.53057065 118.44316431 -119.98127757 120.32512376 -118.42578125 122.203125 C-117.70745117 123.07227539 -117.70745117 123.07227539 -116.97460938 123.95898438 C-111.68795462 130.33083317 -106.27107508 136.57354102 -100.69140625 142.69140625 C-99.44308816 144.07531751 -98.20093048 145.46519687 -96.98735046 146.87966919 C-92.37791745 152.24285215 -87.49766797 157.27684641 -82.4921875 162.26953125 C-81.65541977 163.10725571 -80.81865204 163.94498016 -79.95652771 164.80809021 C-78.19710021 166.56819435 -76.43642472 168.32705177 -74.67456055 170.0847168 C-71.99608714 172.75783472 -69.32299252 175.43624751 -66.65039062 178.11523438 C-64.9313101 179.83365403 -63.21191936 181.55176342 -61.4921875 183.26953125 C-60.70235977 184.06138321 -59.91253204 184.85323517 -59.09877014 185.66908264 C-54.90076421 189.84962211 -50.62580669 193.87635529 -46.1305542 197.73646545 C-43.7391099 199.79388583 -41.43033891 201.93763939 -39.11328125 204.078125 C-34.62430068 208.17192709 -30.01334649 212.05782167 -25.28515625 215.87109375 C-22.78789643 217.90779335 -20.33383769 219.98613413 -17.89111328 222.08764648 C-10.35995392 228.55399194 -2.52117944 234.56925299 5.39794922 240.55029297 C7.52056179 242.16237364 9.62954589 243.7905713 11.734375 245.42578125 C40.2503091 267.54319836 70.73305645 287.2136402 102.57421875 304.203125 C103.26942627 304.57598633 103.96463379 304.94884766 104.6809082 305.33300781 C106.51858286 306.35803948 106.51858286 306.35803948 108.4921875 306.0859375 C130.57895381 296.72081707 148.95564876 265.41732718 157.77734375 244.0078125 C170.01486661 213.07182399 175.92682884 178.02070265 167.57421875 145.203125 C167.37554199 144.41470215 167.17686523 143.6262793 166.97216797 142.81396484 C161.09322156 120.21855361 151.20559761 99.45071457 136.57421875 81.203125 C136.1580127 80.6786377 135.74180664 80.15415039 135.31298828 79.61376953 C111.36765023 49.61225264 76.67769524 28.30142112 38.57421875 22.203125 C37.52717773 22.03176025 37.52717773 22.03176025 36.45898438 21.85693359 C-16.47631253 13.62390931 -69.44745332 31.50226428 -106.62890625 70.15625 Z M-158.42578125 40.203125 C-161.04640232 45.44436713 -159.08762706 51.65175908 -157.5390625 56.97265625 C-154.16196388 66.77216699 -149.77704508 76.32545228 -144.42578125 85.203125 C-143.76578125 85.203125 -143.10578125 85.203125 -142.42578125 85.203125 C-141.14937382 83.45930077 -139.95563243 81.65472228 -138.80078125 79.828125 C-132.71497758 70.49728778 -125.71626306 62.28427192 -118.13671875 54.16015625 C-115.13496683 50.92518271 -112.2771322 47.57059402 -109.42578125 44.203125 C-112.40283895 43.23815707 -115.38278566 42.28241622 -118.36328125 41.328125 C-119.19408203 41.05871094 -120.02488281 40.78929687 -120.88085938 40.51171875 C-129.1338863 37.87845724 -136.97577489 35.84498548 -145.67578125 35.828125 C-146.35640625 35.80363281 -147.03703125 35.77914062 -147.73828125 35.75390625 C-152.59546964 35.72566678 -155.02662365 36.76563103 -158.42578125 40.203125 Z M163.57421875 275.203125 C162.29781132 276.94694923 161.10406993 278.75152772 159.94921875 280.578125 C153.86341508 289.90896222 146.86470056 298.12197808 139.28515625 306.24609375 C136.28340433 309.48106729 133.4255697 312.83565598 130.57421875 316.203125 C133.55127645 317.16809293 136.53122316 318.12383378 139.51171875 319.078125 C140.34251953 319.34753906 141.17332031 319.61695313 142.02929688 319.89453125 C150.14320667 322.48340519 157.74696215 324.48893229 166.32421875 324.515625 C167.5771875 324.53238281 168.83015625 324.54914063 170.12109375 324.56640625 C173.81832394 324.17744425 175.64898401 323.44966319 178.57421875 321.203125 C181.50138527 316.81237522 180.92760551 313.09792903 179.98046875 308.01953125 C177.48514924 299.06004351 173.85886616 291.1627624 169.50732422 282.97265625 C168.15300778 280.40434502 166.86300185 277.80478061 165.57421875 275.203125 C164.91421875 275.203125 164.25421875 275.203125 163.57421875 275.203125 Z " fill="#1E81CE" transform="translate(250.42578125,80.796875)"/>
<path d="M0 0 C3.98727494 3.8765173 7.63533467 7.96395293 11.25 12.1875 C15.70893517 17.36689925 20.2051958 22.50287717 24.8046875 27.55859375 C26.65085196 29.61171259 28.46689615 31.68508236 30.27734375 33.76953125 C33.98890521 38.01803193 37.81568334 42.14758249 41.6875 46.25 C42.38230469 46.98653809 43.07710937 47.72307617 43.79296875 48.48193359 C51.61998512 56.74957933 59.46320333 64.97280945 68.140625 72.359375 C70.18300828 74.16147789 72.08901711 76.05938947 74 78 C77.83591855 81.88026443 81.86041808 85.44895289 86 89 C87.12823295 89.97974514 88.25577676 90.96028415 89.3828125 91.94140625 C101.40109663 102.39926201 113.46807822 112.72059202 126.05761719 122.48730469 C128.14175747 124.11039835 130.21580916 125.74583896 132.2890625 127.3828125 C142.30116417 135.26558448 152.51843531 142.7557542 163 150 C164.34134876 150.93460466 165.68249677 151.8694975 167.0234375 152.8046875 C183.57272222 164.3092013 200.58873625 174.85122557 218 185 C219.35559896 185.79274613 220.71108288 186.58568904 222.06640625 187.37890625 C224.70873118 188.92312212 227.35279355 190.46417348 230 192 C206.13558958 211.9795064 165.38847258 214.73635943 136 213 C128.21271807 212.23741659 120.60854264 210.80147384 113 209 C112.23977539 208.82339844 111.47955078 208.64679688 110.69628906 208.46484375 C86.15525101 202.55134061 63.61096931 189.87562217 45 173 C44.10796875 172.22785156 43.2159375 171.45570313 42.296875 170.66015625 C13.43953392 145.47637239 -5.48079211 107.33534316 -8.78833008 69.15991211 C-9.88919219 52.72570421 -10.03034487 36.03920376 -6 20 C-5.69473389 18.74944824 -5.69473389 18.74944824 -5.38330078 17.47363281 C-1.43680639 1.43680639 -1.43680639 1.43680639 0 0 Z " fill="#9AC8FE" transform="translate(110,208)"/>
<path d="M0 0 C10.97920413 8.14951235 20.01942764 19.31006777 22.3984375 33.11328125 C23.98888109 48.29704739 21.21152015 62.33591532 11.6484375 74.5 C4.02945972 83.59208575 -5.92547852 89.68260934 -17.5390625 92.1875 C-35.0507938 93.62288781 -47.98739145 90.73841873 -61.5390625 79.3125 C-70.92133153 70.48992676 -76.51085091 59.64273853 -77.6953125 46.76171875 C-78.06801755 31.55845869 -74.16929243 18.44961876 -63.6015625 7.1875 C-56.18654574 0.316442 -48.18733159 -4.22076652 -38.3515625 -6.5 C-37.72507813 -6.68433594 -37.09859375 -6.86867187 -36.453125 -7.05859375 C-24.34317983 -9.60213242 -10.36591445 -6.61214476 0 0 Z " fill="#1F81CE" transform="translate(278.3515625,138.5)"/>
<path d="M0 0 C0.928125 0.61875 0.928125 0.61875 1.875 1.25 C2.555625 1.6625 3.23625 2.075 3.9375 2.5 C11.25126094 7.37584063 16.69207996 14.7139589 18.875 23.25 C19.86997548 32.49097448 20.17929143 42.29356286 14.875 50.25 C14.4625 50.930625 14.05 51.61125 13.625 52.3125 C8.42599337 60.11100995 0.99402416 65.20524538 -8.125 67.25 C-20.34043014 68.20008901 -30.26585868 67.37404064 -39.98046875 59.34375 C-47.12998428 52.36353083 -51.30847972 44.81161401 -51.50537109 34.77880859 C-51.47323951 20.77235927 -51.47323951 20.77235927 -47.125 14.25 C-46.7125 13.569375 -46.3 12.88875 -45.875 12.1875 C-36.49418961 -1.88371559 -15.3537909 -8.63650738 0 0 Z " fill="#1E81CE" transform="translate(452.125,43.75)"/>
<path d="M0 0 C3.58598889 2.54054385 6.15992797 5.04327701 8.4921875 8.765625 C8.90210938 9.38695312 9.31203125 10.00828125 9.734375 10.6484375 C13.58244889 17.62804738 13.74273274 26.02607545 12.4921875 33.765625 C10.09120579 41.34186763 6.27912589 47.51322792 -0.5078125 51.765625 C-1.12914062 52.17554688 -1.75046875 52.58546875 -2.390625 53.0078125 C-9.37023488 56.85588639 -17.76826295 57.01617024 -25.5078125 55.765625 C-33.08405513 53.36464329 -39.25541542 49.55256339 -43.5078125 42.765625 C-43.91773438 42.14429688 -44.32765625 41.52296875 -44.75 40.8828125 C-48.59807389 33.90320262 -48.75835774 25.50517455 -47.5078125 17.765625 C-45.10683079 10.18938237 -41.29475089 4.01802208 -34.5078125 -0.234375 C-33.88648437 -0.64429688 -33.26515625 -1.05421875 -32.625 -1.4765625 C-22.455808 -7.08315125 -9.72162164 -5.63801363 0 0 Z " fill="#1E81CE" transform="translate(98.5078125,405.234375)"/>
<path d="M0 0 C7.16252508 4.5999043 11.35117086 10.95683997 14 19 C15.43443955 28.35695951 13.74011313 36.36502849 8.52734375 44.21875 C3.62622295 50.42915366 -2.59646998 53.53215666 -10 56 C-19.68068559 57.10039448 -26.94213509 55.52944395 -35 50 C-41.60125778 44.42348621 -45.21822552 37.40444094 -46.44921875 28.89453125 C-46.9537259 19.51069818 -44.28367347 11.97516793 -38.13671875 4.8359375 C-27.38784797 -5.28824941 -13.01717952 -7.47985444 0 0 Z " fill="#2082CE" transform="translate(217,335)"/>
<path d="M0 0 C7.16252508 4.5999043 11.35117086 10.95683997 14 19 C15.43443955 28.35695951 13.74011313 36.36502849 8.52734375 44.21875 C3.62622295 50.42915366 -2.59646998 53.53215666 -10 56 C-19.68068559 57.10039448 -26.94213509 55.52944395 -35 50 C-41.60125778 44.42348621 -45.21822552 37.40444094 -46.44921875 28.89453125 C-46.9537259 19.51069818 -44.28367347 11.97516793 -38.13671875 4.8359375 C-27.38784797 -5.28824941 -13.01717952 -7.47985444 0 0 Z " fill="#2082CE" transform="translate(367,255)"/>
<path d="M0 0 C6.64219892 4.53736548 11.29609441 11.15238837 13.80859375 18.78125 C14.98776578 29.24297393 13.23249833 37.79537445 6.68359375 46.09375 C0.74277447 52.4460546 -7.5275233 55.87469468 -16.12890625 56.21875 C-24.50753649 56.13468348 -30.97144532 53.34612675 -37.35546875 47.953125 C-43.49416946 41.52708085 -46.34195383 34.23106502 -46.81640625 25.40625 C-46.50032524 16.47169352 -42.88418028 8.90846201 -36.37890625 2.78125 C-25.31991013 -5.78528298 -12.38573754 -6.88832462 0 0 Z " fill="#FCFDFE" transform="translate(267.19140625,155.21875)"/>
<path d="M0 0 C4.36492736 2.40706674 5.93942071 4.83284673 7.8125 9.4375 C8.54520346 14.47483626 7.62027557 18.24512573 5.20703125 22.63671875 C1.9113554 26.89247944 -2.54684459 28.17382324 -7.6875 29 C-12.37661747 28.24639184 -15.64727219 26.60297396 -19.1875 23.4375 C-21.97287223 18.73718437 -22.86540686 14.86075487 -22.1875 9.4375 C-20.44294414 4.504976 -17.73316107 1.40475576 -13.0390625 -0.90234375 C-8.34602817 -2.57559861 -4.45447532 -1.90552555 0 0 Z " fill="#98C7FE" transform="translate(443.1875,62.5625)"/>
<path d="M0 0 C3.125 1.875 3.125 1.875 5 5 C5.98876625 10.02622846 5.7769173 13.70513784 3.125 18.125 C-1.29486216 20.7769173 -4.97377154 20.98876625 -10 20 C-13.125 18.125 -13.125 18.125 -15 15 C-15.98876625 9.97377154 -15.7769173 6.29486216 -13.125 1.875 C-8.70513784 -0.7769173 -5.02622846 -0.98876625 0 0 Z " fill="#1E81CE" transform="translate(456,451)"/>
<path d="M0 0 C3.125 1.875 3.125 1.875 5 5 C5.98876625 10.02622846 5.7769173 13.70513784 3.125 18.125 C-1.29486216 20.7769173 -4.97377154 20.98876625 -10 20 C-13.125 18.125 -13.125 18.125 -15 15 C-15.98876625 9.97377154 -15.7769173 6.29486216 -13.125 1.875 C-8.70513784 -0.7769173 -5.02622846 -0.98876625 0 0 Z " fill="#1E81CE" transform="translate(276,451)"/>
<path d="M0 0 C3.125 1.875 3.125 1.875 5 5 C5.98876625 10.02622846 5.7769173 13.70513784 3.125 18.125 C-1.29486216 20.7769173 -4.97377154 20.98876625 -10 20 C-13.125 18.125 -13.125 18.125 -15 15 C-15.98876625 9.97377154 -15.7769173 6.29486216 -13.125 1.875 C-8.70513784 -0.7769173 -5.02622846 -0.98876625 0 0 Z " fill="#1E81CE" transform="translate(146,431)"/>
<path d="M0 0 C3.125 1.875 3.125 1.875 5 5 C5.98876625 10.02622846 5.7769173 13.70513784 3.125 18.125 C-1.29486216 20.7769173 -4.97377154 20.98876625 -10 20 C-13.125 18.125 -13.125 18.125 -15 15 C-15.98876625 9.97377154 -15.7769173 6.29486216 -13.125 1.875 C-8.70513784 -0.7769173 -5.02622846 -0.98876625 0 0 Z " fill="#1E81CE" transform="translate(66,331)"/>
<path d="M0 0 C3.125 1.875 3.125 1.875 5 5 C5.98876625 10.02622846 5.7769173 13.70513784 3.125 18.125 C-1.29486216 20.7769173 -4.97377154 20.98876625 -10 20 C-13.125 18.125 -13.125 18.125 -15 15 C-15.98876625 9.97377154 -15.7769173 6.29486216 -13.125 1.875 C-8.70513784 -0.7769173 -5.02622846 -0.98876625 0 0 Z " fill="#1E81CE" transform="translate(466,161)"/>
<path d="M0 0 C3.125 1.875 3.125 1.875 5 5 C5.98876625 10.02622846 5.7769173 13.70513784 3.125 18.125 C-1.29486216 20.7769173 -4.97377154 20.98876625 -10 20 C-13.125 18.125 -13.125 18.125 -15 15 C-15.98876625 9.97377154 -15.7769173 6.29486216 -13.125 1.875 C-8.70513784 -0.7769173 -5.02622846 -0.98876625 0 0 Z " fill="#1E81CE" transform="translate(56,121)"/>
<path d="M0 0 C3.125 1.875 3.125 1.875 5 5 C5.98876625 10.02622846 5.7769173 13.70513784 3.125 18.125 C-1.29486216 20.7769173 -4.97377154 20.98876625 -10 20 C-13.125 18.125 -13.125 18.125 -15 15 C-15.98876625 9.97377154 -15.7769173 6.29486216 -13.125 1.875 C-8.70513784 -0.7769173 -5.02622846 -0.98876625 0 0 Z " fill="#1E81CE" transform="translate(336,41)"/>
<path d="M0 0 C3.125 1.875 3.125 1.875 5 5 C5.98876625 10.02622846 5.7769173 13.70513784 3.125 18.125 C-1.29486216 20.7769173 -4.97377154 20.98876625 -10 20 C-13.125 18.125 -13.125 18.125 -15 15 C-15.98876625 9.97377154 -15.7769173 6.29486216 -13.125 1.875 C-8.70513784 -0.7769173 -5.02622846 -0.98876625 0 0 Z " fill="#1E81CE" transform="translate(156,41)"/>
<path d="M0 0 C3.67123639 0.01977327 4.15668193 0.29756585 7.1875 2.8125 C8.2084375 4.0809375 8.2084375 4.0809375 9.25 5.375 C9.58 5.705 9.91 6.035 10.25 6.375 C10.29249593 10.56509901 9.92028061 14.25786566 7.75 17.875 C4.0593602 20.08938388 0.54600964 20.85743959 -3.75 20.375 C-6.75 18 -6.75 18 -8.75 15.375 C-9.08 15.045 -9.41 14.715 -9.75 14.375 C-10.04322866 11.44271337 -10.25004247 9.23008117 -9.75 6.375 C-7.3125 3.4375 -7.3125 3.4375 -4.75 1.375 C-3.75 0.375 -3.75 0.375 0 0 Z " fill="#F6FAFD" transform="translate(80.75,420.625)"/>
<path d="M0 0 C3.67123639 0.01977327 4.15668193 0.29756585 7.1875 2.8125 C8.2084375 4.0809375 8.2084375 4.0809375 9.25 5.375 C9.58 5.705 9.91 6.035 10.25 6.375 C10.29249593 10.56509901 9.92028061 14.25786566 7.75 17.875 C4.0593602 20.08938388 0.54600964 20.85743959 -3.75 20.375 C-6.75 18 -6.75 18 -8.75 15.375 C-9.08 15.045 -9.41 14.715 -9.75 14.375 C-10.04322866 11.44271337 -10.25004247 9.23008117 -9.75 6.375 C-7.3125 3.4375 -7.3125 3.4375 -4.75 1.375 C-3.75 0.375 -3.75 0.375 0 0 Z " fill="#F6FAFD" transform="translate(200.75,350.625)"/>
<path d="M0 0 C4.21991975 0.32138462 6.62477605 0.71843517 10.171875 3.1796875 C12.62942904 6.82638059 12.72695581 8.73162183 12.109375 13.0546875 C10.75690611 16.25790328 9.82378782 17.64920996 6.796875 19.3671875 C3.62182807 20.17940881 1.37132147 20.53038803 -1.890625 20.0546875 C-4.85978717 18.00926467 -6.46450923 16.35657712 -7.59765625 12.89453125 C-8.03087255 10.46932972 -8.20954117 8.49971148 -7.890625 6.0546875 C-5.515625 3.0546875 -5.515625 3.0546875 -2.890625 1.0546875 C-1.890625 0.0546875 -1.890625 0.0546875 0 0 Z " fill="#2283CF" transform="translate(278.890625,380.9453125)"/>
<path d="M0 0 C4.21991975 0.32138462 6.62477605 0.71843517 10.171875 3.1796875 C12.62942904 6.82638059 12.72695581 8.73162183 12.109375 13.0546875 C10.75690611 16.25790328 9.82378782 17.64920996 6.796875 19.3671875 C3.62182807 20.17940881 1.37132147 20.53038803 -1.890625 20.0546875 C-4.85978717 18.00926467 -6.46450923 16.35657712 -7.59765625 12.89453125 C-8.03087255 10.46932972 -8.20954117 8.49971148 -7.890625 6.0546875 C-5.515625 3.0546875 -5.515625 3.0546875 -2.890625 1.0546875 C-1.890625 0.0546875 -1.890625 0.0546875 0 0 Z " fill="#2283CF" transform="translate(138.890625,280.9453125)"/>
<path d="M0 0 C4.21991975 0.32138462 6.62477605 0.71843517 10.171875 3.1796875 C12.62942904 6.82638059 12.72695581 8.73162183 12.109375 13.0546875 C10.75690611 16.25790328 9.82378782 17.64920996 6.796875 19.3671875 C3.62182807 20.17940881 1.37132147 20.53038803 -1.890625 20.0546875 C-4.85978717 18.00926467 -6.46450923 16.35657712 -7.59765625 12.89453125 C-8.03087255 10.46932972 -8.20954117 8.49971148 -7.890625 6.0546875 C-5.515625 3.0546875 -5.515625 3.0546875 -2.890625 1.0546875 C-1.890625 0.0546875 -1.890625 0.0546875 0 0 Z " fill="#2283CF" transform="translate(278.890625,260.9453125)"/>
<path d="M0 0 C4.21991975 0.32138462 6.62477605 0.71843517 10.171875 3.1796875 C12.62942904 6.82638059 12.72695581 8.73162183 12.109375 13.0546875 C10.75690611 16.25790328 9.82378782 17.64920996 6.796875 19.3671875 C3.62182807 20.17940881 1.37132147 20.53038803 -1.890625 20.0546875 C-4.85978717 18.00926467 -6.46450923 16.35657712 -7.59765625 12.89453125 C-8.03087255 10.46932972 -8.20954117 8.49971148 -7.890625 6.0546875 C-5.515625 3.0546875 -5.515625 3.0546875 -2.890625 1.0546875 C-1.890625 0.0546875 -1.890625 0.0546875 0 0 Z " fill="#2283CF" transform="translate(178.890625,170.9453125)"/>
<path d="M0 0 C3.21830373 2.20199729 3.88939752 3.60183107 4.9375 7.375 C5.00995665 11.57748599 4.39674773 13.56466159 2 17 C-1.08640454 18.97186957 -2.88503046 19.00403402 -6.5625 18.875 C-10.47218861 17.87980654 -11.80654399 17.3745477 -14 14 C-14.9342045 10.93374597 -15.34753775 8.19620785 -15 5 C-10.6380515 -0.81593133 -6.9259333 -1.57959882 0 0 Z " fill="#98C7FD" transform="translate(356,272)"/>
</svg>
